<svg xmlns="http://www.w3.org/2000/svg" version="1.1" xmlns:xlink="http://www.w3.org/1999/xlink" xmlns:svgjs="http://svgjs.dev/svgjs" width="1500" height="1500" viewBox="0 0 1500 1500"><rect width="1500" height="1500" fill="#ebefd8"></rect><g transform="matrix(0.6666666666666666,0,0,0.6666666666666666,249.39393939393938,665.5855337485798)"><svg viewBox="0 0 396 67" data-background-color="#ebefd8" preserveAspectRatio="xMidYMid meet" height="253" width="1500" xmlns="http://www.w3.org/2000/svg" xmlns:xlink="http://www.w3.org/1999/xlink"><g id="tight-bounds" transform="matrix(1,0,0,1,0.2400000000000091,0.03222868880521901)"><svg viewBox="0 0 395.52 66.93554262238959" height="66.93554262238959" width="395.52"><g><svg viewBox="0 0 395.52 66.93554262238959" height="66.93554262238959" width="395.52"><g><svg viewBox="0 0 395.52 66.93554262238959" height="66.93554262238959" width="395.52"><g id="textblocktransform"><svg viewBox="0 0 395.52 66.93554262238959" height="66.93554262238959" width="395.52" id="textblock"><g><svg viewBox="0 0 395.52 66.93554262238959" height="66.93554262238959" width="395.52"><g transform="matrix(1,0,0,1,0,0)"><svg width="395.52" viewBox="1.15 -35.45 213.92 36.21" height="66.93554262238959" data-palette-color="#d52814"><path d="M28.25-7.01L28.25 0 1.15 0 16.09-28 1.15-28 1.15-35.01 28.25-35.01 13.35-7.01 28.25-7.01ZM67.33-35.01L67.33-10.01Q67.33-7.84 66.51-5.92 65.7-4 64.27-2.58 62.84-1.15 60.92-0.33 59.01 0.49 56.83 0.49L56.83 0.49Q54.88 0.49 53.09-0.2 51.29-0.88 49.85-2.2L49.85-2.2Q48.41-0.88 46.6-0.2 44.8 0.49 42.84 0.49L42.84 0.49Q40.67 0.49 38.75-0.33 36.84-1.15 35.41-2.58 33.98-4 33.16-5.92 32.35-7.84 32.35-10.01L32.35-10.01 32.35-35.01 39.35-35.01 39.35-10.01Q39.35-9.28 39.62-8.63 39.89-7.98 40.37-7.51 40.84-7.03 41.48-6.76 42.11-6.49 42.84-6.49L42.84-6.49Q43.58-6.49 44.21-6.76 44.85-7.03 45.32-7.51 45.8-7.98 46.07-8.63 46.34-9.28 46.34-10.01L46.34-10.01 46.34-35.01 53.34-35.01 53.34-10.01Q53.34-9.28 53.61-8.63 53.88-7.98 54.36-7.51 54.83-7.03 55.47-6.76 56.1-6.49 56.83-6.49L56.83-6.49Q57.57-6.49 58.2-6.76 58.84-7.03 59.31-7.51 59.79-7.98 60.07-8.63 60.35-9.28 60.35-10.01L60.35-10.01 60.35-35.01 67.33-35.01ZM80.59-35.01L80.59 0 73.58 0 73.58-35.01 80.59-35.01ZM114.93-17.36L114.93-3.54Q112.49-1.46 109.49-0.35 106.49 0.76 103.24 0.76L103.24 0.76Q100.75 0.76 98.44 0.11 96.14-0.54 94.13-1.72 92.13-2.91 90.47-4.55 88.81-6.2 87.64-8.22 86.47-10.23 85.82-12.55 85.17-14.87 85.17-17.36L85.17-17.36Q85.17-19.85 85.82-22.14 86.47-24.44 87.64-26.45 88.81-28.47 90.47-30.11 92.13-31.76 94.13-32.93 96.14-34.11 98.44-34.75 100.75-35.4 103.24-35.4L103.24-35.4Q106.49-35.4 109.49-34.29 112.49-33.18 114.93-31.1L114.93-31.1 111.27-25Q109.68-26.61 107.61-27.53 105.53-28.44 103.24-28.44L103.24-28.44Q100.94-28.44 98.93-27.56 96.92-26.68 95.4-25.18 93.89-23.68 93.01-21.67 92.13-19.65 92.13-17.36L92.13-17.36Q92.13-15.04 93.01-13.01 93.89-10.99 95.4-9.47 96.92-7.96 98.93-7.08 100.94-6.2 103.24-6.2L103.24-6.2Q104.56-6.2 105.8-6.52 107.05-6.84 108.17-7.4L108.17-7.4 108.17-17.36 114.93-17.36ZM126.92-13.99L140.93-13.99 140.93-21Q140.93-22.44 140.38-23.72 139.83-25 138.88-25.95 137.93-26.9 136.65-27.45 135.37-28 133.93-28L133.93-28Q132.49-28 131.2-27.45 129.92-26.9 128.97-25.95 128.02-25 127.47-23.72 126.92-22.44 126.92-21L126.92-21 126.92-13.99ZM147.94-21L147.94 0 140.93 0 140.93-7.01 126.92-7.01 126.92 0 119.94 0 119.94-21Q119.94-23.9 121.03-26.45 122.13-29 124.03-30.91 125.92-32.81 128.47-33.91 131.02-35.01 133.93-35.01L133.93-35.01Q136.83-35.01 139.38-33.91 141.93-32.81 143.84-30.91 145.74-29 146.84-26.45 147.94-23.9 147.94-21L147.94-21ZM167.66-28L167.66 0 160.68 0 160.68-28 150.16-28 150.16-35.01 178.16-35.01 178.16-28 167.66-28ZM215.07-17.36L215.07-17.36Q215.07-14.87 214.43-12.56 213.78-10.25 212.61-8.24 211.44-6.23 209.78-4.57 208.11-2.91 206.11-1.72 204.11-0.54 201.79 0.11 199.47 0.76 196.98 0.76L196.98 0.76Q194.49 0.76 192.18 0.11 189.88-0.54 187.86-1.72 185.85-2.91 184.19-4.57 182.53-6.23 181.34-8.24 180.16-10.25 179.51-12.56 178.87-14.87 178.87-17.36L178.87-17.36Q178.87-19.85 179.51-22.17 180.16-24.49 181.34-26.49 182.53-28.49 184.19-30.15 185.85-31.81 187.86-32.98 189.88-34.16 192.18-34.8 194.49-35.45 196.98-35.45L196.98-35.45Q199.47-35.45 201.79-34.8 204.11-34.16 206.11-32.98 208.11-31.81 209.78-30.15 211.44-28.49 212.61-26.49 213.78-24.49 214.43-22.17 215.07-19.85 215.07-17.36ZM208.11-17.36L208.11-17.36Q208.11-19.65 207.24-21.69 206.36-23.73 204.86-25.23 203.35-26.73 201.32-27.61 199.28-28.49 196.98-28.49L196.98-28.49Q194.66-28.49 192.64-27.61 190.61-26.73 189.1-25.23 187.58-23.73 186.7-21.69 185.82-19.65 185.82-17.36L185.82-17.36Q185.82-15.06 186.7-13.05 187.58-11.04 189.1-9.52 190.61-8.01 192.64-7.13 194.66-6.25 196.98-6.25L196.98-6.25Q199.28-6.25 201.32-7.13 203.35-8.01 204.86-9.52 206.36-11.04 207.24-13.05 208.11-15.06 208.11-17.36Z" opacity="1" transform="matrix(1,0,0,1,0,0)" fill="#d52814" class="wordmark-text-0" data-fill-palette-color="primary" id="text-0"></path></svg></g></svg></g></svg></g></svg></g></svg></g><defs></defs></svg><rect width="395.52" height="66.93554262238959" fill="none" stroke="none" visibility="hidden"></rect></g></svg></g></svg>